<svg xmlns="http://www.w3.org/2000/svg" viewBox="0 0 500 500"><g id="freepik--background-complete--inject-67"><rect x="416.78" y="398.49" width="33.12" height="0.25" style="fill:#ebebeb"></rect><rect x="322.53" y="401.21" width="8.69" height="0.25" style="fill:#ebebeb"></rect><rect x="396.59" y="389.21" width="19.19" height="0.25" style="fill:#ebebeb"></rect><rect x="52.46" y="390.89" width="43.19" height="0.25" style="fill:#ebebeb"></rect><rect x="104.56" y="390.89" width="6.33" height="0.25" style="fill:#ebebeb"></rect><rect x="131.47" y="395.11" width="93.68" height="0.25" style="fill:#ebebeb"></rect><path d="M237,337.8H43.91a5.71,5.71,0,0,1-5.7-5.71V60.66A5.71,5.71,0,0,1,43.91,55H237a5.71,5.71,0,0,1,5.71,5.71V332.09A5.71,5.71,0,0,1,237,337.8ZM43.91,55.2a5.46,5.46,0,0,0-5.45,5.46V332.09a5.46,5.46,0,0,0,5.45,5.46H237a5.47,5.47,0,0,0,5.46-5.46V60.66A5.47,5.47,0,0,0,237,55.2Z" style="fill:#ebebeb"></path><path d="M453.31,337.8H260.21a5.72,5.72,0,0,1-5.71-5.71V60.66A5.72,5.72,0,0,1,260.21,55h193.1A5.71,5.71,0,0,1,459,60.66V332.09A5.71,5.71,0,0,1,453.31,337.8ZM260.21,55.2a5.47,5.47,0,0,0-5.46,5.46V332.09a5.47,5.47,0,0,0,5.46,5.46h193.1a5.47,5.47,0,0,0,5.46-5.46V60.66a5.47,5.47,0,0,0-5.46-5.46Z" style="fill:#ebebeb"></path><rect y="382.4" width="500" height="0.25" style="fill:#ebebeb"></rect><path d="M302.75,201.76l37.92-2.21a6.93,6.93,0,0,1,3.85.91h0c12.53,10.86,26,3.61,32-.67a14.77,14.77,0,0,1,7.72-2.78l42.26-2.46c15.85-.92,18.38-23.34,3.11-27.68l-.59-.16c15.75-14.76-22.28-41.74-59.4.84,2.29-13.61-32.51-6.71-42.18,12.24C322.93,168,290.69,190.83,302.75,201.76Z" style="fill:#f0f0f0"></path><path d="M147.43,237.34l-20.55-.4-1.7.73a33.76,33.76,0,0,1-29.13-1.32h0L78.87,236s-16-6.37-13.58-22.36,26.41-2.17,26.41-2.17S84.77,189,108.15,195.77s25.25,29,25.25,29S164.38,220,147.43,237.34Z" style="fill:#f0f0f0"></path><path d="M197.46,364.16l8.52,0a1.25,1.25,0,0,1,1.25,1.25v3a1.25,1.25,0,0,0,1.25,1.25H221a1.25,1.25,0,0,0,1.26-1.25v-11h0a1.25,1.25,0,0,1,1.25-1.24h2.66a1.25,1.25,0,0,0,1.25-1.25v-6a1.25,1.25,0,0,1,1.25-1.25H233a1.25,1.25,0,0,1,1.25,1.25v1.77a1.25,1.25,0,0,0,1.26,1.26h.4a1.25,1.25,0,0,0,1.25-1.25v-6.55a1.25,1.25,0,0,1,1.25-1.25h4.32a1.25,1.25,0,0,1,1.25,1.25v6.56a1.25,1.25,0,0,0,1.25,1.25h1.35a1.25,1.25,0,0,0,1.25-1.25V337.41h0v-6.62h.26v4.08l.08-.11,9.93-5.7c.21-.23.33,0,.33-.31v-8.16l.68-.49,12.41-8.89v-3.54h.27V311l.05,0v39.65a1.25,1.25,0,0,0,1.25,1.25h1.63a1.25,1.25,0,0,0,1.25-1.25l.39-14.8a1.17,1.17,0,0,1,.1-.41l2.43-5.07h.18v-5.72a1,1,0,0,1,1-1h.49v-4.06h.27v4.06h.25a1,1,0,0,1,1,1v.26h1.14v-.26a1,1,0,0,1,1-1h.43v-4.06h.27v4.06h.31a1,1,0,0,1,1,1v5.72h.18l2.43,5.07a1,1,0,0,1,.1.41l.4,14.79a1.25,1.25,0,0,0,1.25,1.25h2.29a1.25,1.25,0,0,1,1.25,1.25v1.72a1.25,1.25,0,0,0,1.25,1.25H297a1.25,1.25,0,0,1,1.23,1L302.63,380a1.64,1.64,0,0,1,0,.23,1.24,1.24,0,0,1-1.25,1.25H197.47C197.21,381.5,197.46,364.16,197.46,364.16Z" style="fill:#f5f5f5"></path><path d="M292.35,383.07s38.67-30.94,53.26-31.46S465.69,381.5,465.69,381.5Z" style="fill:#f0f0f0"></path><path d="M213.09,383.07s-46.71-23.66-53.9-24.19-31.61,22.62-31.61,22.62Z" style="fill:#f0f0f0"></path><path d="M172.9,383.07s-76.85-23.66-88.69-24.19-52,22.62-52,22.62Z" style="fill:#ebebeb"></path><path d="M366.13,313.37c4.52-4.53,10.55-5.14,13.47-1.36s1.63,10.53-2.88,15.06-10.54,5.14-13.47,1.36S361.62,317.91,366.13,313.37Z" style="fill:#e6e6e6"></path><ellipse cx="357.95" cy="305.71" rx="29.28" ry="21.53" transform="translate(-108.58 368.41) rotate(-48.15)" style="fill:#ebebeb"></ellipse><ellipse cx="405.9" cy="302.03" rx="20.8" ry="15.29" transform="translate(-89.88 402.91) rotate(-48.15)" style="fill:#e6e6e6"></ellipse><ellipse cx="414.99" cy="317.42" rx="20.8" ry="15.29" transform="translate(-98.32 414.8) rotate(-48.15)" style="fill:#ebebeb"></ellipse><ellipse cx="391.33" cy="297.8" rx="28.69" ry="21.09" transform="translate(-91.59 390.62) rotate(-48.15)" style="fill:#f0f0f0"></ellipse><ellipse cx="363.08" cy="308.96" rx="16.19" ry="11.75" transform="translate(-100.75 419.15) rotate(-53.76)" style="fill:#f0f0f0"></ellipse><ellipse cx="412.6" cy="327.21" rx="11.7" ry="8.5" transform="translate(-95.23 466.55) rotate(-53.76)" style="fill:#f0f0f0"></ellipse><path d="M406.84,337.37,398.91,344c.64,9.34,1.15,30.84,1.15,30.84l2.82,15-24.84.21s1.13-12.7,1.13-13.39,4.8-25,4.8-25l1.69-13.62-12.81-3.51-2.34-6.07-9.42-4.79-4.6-6.35,1.78-.39,5.08,5.87,5.93,1.15-2.54-5.4h2.83l7.06,12.52,9.09,1.67-1.19-17.57c8.76,2.46,9.6-2,9.6-2s3,23.65,4.06,26.34l4.69-2.12,5.09-7.21h2.26Z" style="fill:#e6e6e6"></path><ellipse cx="129.01" cy="339.14" rx="5.34" ry="7.36" transform="matrix(0.81, -0.59, 0.59, 0.81, -175.54, 141.89)" style="fill:#e6e6e6"></ellipse><path d="M146.12,319.5c-7.36-7-17.21-7.9-22-2.09s-2.66,16.16,4.71,23.13,17.21,7.9,22,2.09S153.49,326.46,146.12,319.5Z" style="fill:#ebebeb"></path><path d="M113.47,320.23c-5.23-5-12.22-5.61-15.61-1.48s-1.9,11.48,3.34,16.43,12.22,5.61,15.61,1.48S118.7,325.18,113.47,320.23Z" style="fill:#e6e6e6"></path><path d="M107.76,329.91c-5.24-5-12.23-5.61-15.62-1.49s-1.89,11.49,3.34,16.44,12.23,5.61,15.62,1.48S113,334.86,107.76,329.91Z" style="fill:#ebebeb"></path><ellipse cx="116.5" cy="325.05" rx="13.26" ry="18.04" transform="translate(-187.14 160.65) rotate(-41.85)" style="fill:#f0f0f0"></ellipse><ellipse cx="134.26" cy="332.06" rx="7.39" ry="10.18" transform="translate(-170.33 143.61) rotate(-36.24)" style="fill:#f0f0f0"></ellipse><path d="M106.45,339.23c-2.84-2.85-6.63-3.23-8.46-.85s-1,6.61,1.81,9.47,6.63,3.23,8.46.85S109.29,342.08,106.45,339.23Z" style="fill:#f0f0f0"></path><path d="M106.75,349.93l5,4.16c-.4,5.87-.72,19.39-.72,19.39l-1.78,9.46,15.63.13s-.71-8-.71-8.42-3-15.73-3-15.73l-1.07-8.57,8.06-2.2,1.47-3.82,5.92-3,2.9-4-1.12-.25-3.2,3.69-3.73.73,1.6-3.4h-1.78L125.74,346,120,347l.74-11c-5.5,1.55-6-1.28-6-1.28s-1.88,14.88-2.55,16.57l-3-1.33-3.2-4.54h-1.42Z" style="fill:#f5f5f5"></path><path d="M263.08,293.31h56.15c7.19,0,8.93-10.07,2.14-12.43l-.27-.09c7.52-6.26-9-19.47-26.88-1.19,1.39-6.09-14.53-3.89-19.4,4.43C273.09,278.57,257.91,288.05,263.08,293.31Z" style="fill:#f0f0f0"></path></g><g id="freepik--Shadow--inject-67"><ellipse id="freepik--path--inject-67" cx="250" cy="415.69" rx="193.89" ry="11.32" style="fill:#f5f5f5"></ellipse></g><g id="freepik--aircraft-3--inject-67"><path d="M297.59,208.89c0,2.84-13.33,5.15-29.76,5.15s-29.77-2.31-29.77-5.15,13.33-5.15,29.77-5.15S297.59,206,297.59,208.89Z" style="fill:#000000"></path><path d="M297.59,208.89c0,2.84-13.33,5.15-29.76,5.15s-29.77-2.31-29.77-5.15,13.33-5.15,29.77-5.15S297.59,206,297.59,208.89Z" style="fill:#fff;opacity:0.8"></path><path d="M258.52,216.87l-.83,10.24a1,1,0,0,0,1.68.73h0a.94.94,0,0,0,.24-.57l1-10.77Z" style="fill:none;stroke:#263238;stroke-miterlimit:10"></path><path d="M277.23,216.87l.83,10.24a1,1,0,0,1-1.68.73h0a1,1,0,0,1-.25-.57l-1-10.77Z" style="fill:none;stroke:#263238;stroke-miterlimit:10"></path><polygon points="259.16 218.57 257.44 218.57 257.44 215.23 259.71 215.23 259.16 218.57" style="fill:#000000"></polygon><polygon points="259.16 218.57 261.09 217.56 261.56 214.43 259.71 215.23 259.16 218.57" style="fill:#000000"></polygon><polygon points="259.16 218.57 257.44 218.57 257.44 215.23 259.71 215.23 259.16 218.57" style="fill:#fff;opacity:0.1"></polygon><polygon points="276.62 218.57 278.33 218.57 278.33 215.23 276.06 215.23 276.62 218.57" style="fill:#000000"></polygon><polygon points="276.62 218.57 274.69 217.56 274.21 214.43 276.06 215.23 276.62 218.57" style="fill:#000000"></polygon><polygon points="276.62 218.57 278.33 218.57 278.33 215.23 276.06 215.23 276.62 218.57" style="fill:#fff;opacity:0.1"></polygon><path d="M253.93,208.21l-5.9.48a.05.05,0,0,0,0,.1l4.62.15Z" style="fill:#000000"></path><g style="opacity:0.30000000000000004"><path d="M253.93,208.21l-5.9.48a.05.05,0,0,0,0,.1l4.62.15Z" style="fill:#fff"></path></g><path d="M254.35,210.5H252v-.74a1.18,1.18,0,0,1,1.18-1.19h0a1.18,1.18,0,0,1,1.18,1.19Z" style="fill:#000000"></path><path d="M253.8,207.75v.59h-1.17v-.59a.58.58,0,0,1,.58-.58A.59.59,0,0,1,253.8,207.75Z" style="fill:#000000"></path><path d="M254.35,210.5H252v-.74a1.18,1.18,0,0,1,1.18-1.19h0a1.18,1.18,0,0,1,1.18,1.19Z" style="fill:#fff;opacity:0.4"></path><path d="M257,208.05l1.2.15a.23.23,0,0,1,.08.43h0a3.83,3.83,0,0,1-1.71.52l-1.45.08h-.08l-1.62-.44-.68-.37,1.59-.29A8.54,8.54,0,0,1,257,208.05Z" style="fill:#000000"></path><path d="M257,208.05l1.2.15a.23.23,0,0,1,.08.43h0a3.83,3.83,0,0,1-1.71.52l-1.45.08h-.08l-1.62-.44-.68-.37,1.59-.29A8.54,8.54,0,0,1,257,208.05Z" style="fill:#fff;opacity:0.6000000000000001"></path><path d="M261.32,211.23l-.48,2.06-8.45-1.35a.78.78,0,0,1,0-1.56h1.69a.76.76,0,0,1,.68.4h0Z" style="fill:#000000"></path><path d="M261.32,211.23l-.48,2.06-8.45-1.35a.78.78,0,0,1,0-1.56h1.69a.76.76,0,0,1,.68.4h0Z" style="fill:#fff;opacity:0.4"></path><path d="M281.87,208.21l5.9.48a.05.05,0,0,1,0,.1l-4.62.15Z" style="fill:#000000"></path><g style="opacity:0.30000000000000004"><path d="M281.87,208.21l5.9.48a.05.05,0,0,1,0,.1l-4.62.15Z" style="fill:#fff"></path></g><path d="M281.44,210.5h2.37v-.74a1.18,1.18,0,0,0-1.18-1.19h0a1.19,1.19,0,0,0-1.19,1.19Z" style="fill:#000000"></path><path d="M282,207.75v.59h1.17v-.59a.59.59,0,0,0-1.17,0Z" style="fill:#000000"></path><path d="M281.44,210.5h2.37v-.74a1.18,1.18,0,0,0-1.18-1.19h0a1.19,1.19,0,0,0-1.19,1.19Z" style="fill:#fff;opacity:0.4"></path><path d="M278.77,208.05l-1.2.15a.23.23,0,0,0-.09.43h0a3.91,3.91,0,0,0,1.72.52l1.45.08h.08l1.61-.44.69-.37-1.59-.29A8.54,8.54,0,0,0,278.77,208.05Z" style="fill:#000000"></path><path d="M278.77,208.05l-1.2.15a.23.23,0,0,0-.09.43h0a3.91,3.91,0,0,0,1.72.52l1.45.08h.08l1.61-.44.69-.37-1.59-.29A8.54,8.54,0,0,0,278.77,208.05Z" style="fill:#fff;opacity:0.6000000000000001"></path><path d="M274.48,211.23l.48,2.06,8.45-1.35a.78.78,0,1,0,0-1.56h-1.69a.76.76,0,0,0-.68.4h0Z" style="fill:#000000"></path><path d="M274.48,211.23l.48,2.06,8.45-1.35a.78.78,0,1,0,0-1.56h-1.69a.76.76,0,0,0-.68.4h0Z" style="fill:#fff;opacity:0.4"></path><path d="M246.76,207.44c.16,0,7.78-.86,11.27-1.24a.1.1,0,0,1,0,.2l-8.63,1.94Z" style="fill:#000000"></path><path d="M246.76,207.44c.16,0,7.78-.86,11.27-1.24a.1.1,0,0,1,0,.2l-8.63,1.94Z" style="fill:#fff;opacity:0.6000000000000001"></path><path d="M249.43,207.35a1,1,0,1,1-1-1A1,1,0,0,1,249.43,207.35Z" style="fill:#000000"></path><rect x="247.45" y="207.35" width="1.98" height="0.99" style="fill:#000000"></rect><rect x="247.86" y="208.34" width="1.15" height="0.52" style="fill:#000000"></rect><path d="M240.88,208.25l-2.2.72a.44.44,0,0,0,0,.83h0a7.32,7.32,0,0,0,3.41.36l2.76-.37.14,0,2.88-1.41,1.15-1-3.08,0A16.34,16.34,0,0,0,240.88,208.25Z" style="fill:#000000"></path><g style="opacity:0.6000000000000001"><path d="M240.88,208.25l-2.2.72a.44.44,0,0,0,0,.83h0a7.32,7.32,0,0,0,3.41.36l2.76-.37.14,0,2.88-1.41,1.15-1-3.08,0A16.34,16.34,0,0,0,240.88,208.25Z" style="fill:#fff"></path></g><path d="M248.37,208.75h0a2,2,0,0,1,2,2V212a0,0,0,0,1,0,0h-4a0,0,0,0,1,0,0v-1.27A2,2,0,0,1,248.37,208.75Z" style="fill:#000000"></path><path d="M248.37,208.75h0a2,2,0,0,1,2,2V212a0,0,0,0,1,0,0h-4a0,0,0,0,1,0,0v-1.27A2,2,0,0,1,248.37,208.75Z" style="fill:#fff;opacity:0.2"></path><path d="M270.64,220.47h-5.71l.26-.54a1.27,1.27,0,0,1,1.13-.7h2.93a1.24,1.24,0,0,1,1.12.7Z" style="fill:#000000"></path><path d="M270.64,220.47h-5.71l.26-.54a1.27,1.27,0,0,1,1.13-.7h2.93a1.24,1.24,0,0,1,1.12.7Z" style="fill:#fff;opacity:0.1"></path><rect x="267.02" y="216.26" width="1.44" height="3.33" style="opacity:0.30000000000000004"></rect><rect x="264.78" y="219.86" width="6.02" height="4.11" rx="1.17" style="fill:#000000"></rect><rect x="264.78" y="219.86" width="6.02" height="4.11" rx="1.17" style="fill:#fff;opacity:0.2"></rect><path d="M269.63,223h-3.78v-.35a1.89,1.89,0,0,1,1.89-1.89h0a1.89,1.89,0,0,1,1.89,1.89Z" style="fill:#000000"></path><path d="M269.63,222.79a1.91,1.91,0,0,1-3.78,0,1.9,1.9,0,0,1,3.78,0Z" style="fill:#000000"></path><path d="M269.63,222.79a1.91,1.91,0,0,1-3.78,0,1.9,1.9,0,0,1,3.78,0Z" style="opacity:0.30000000000000004"></path><ellipse cx="267.71" cy="222.95" rx="1.49" ry="1.23" style="fill:#000000"></ellipse><ellipse cx="267.71" cy="222.95" rx="1.49" ry="1.23" style="opacity:0.2"></ellipse><path d="M268.83,223a1.13,1.13,0,0,1-2.23,0,1.14,1.14,0,0,1,2.23,0Z" style="fill:#000000"></path><path d="M268.83,223a1.13,1.13,0,0,1-2.23,0,1.14,1.14,0,0,1,2.23,0Z" style="opacity:0.30000000000000004"></path><ellipse cx="267.72" cy="222.87" rx="0.67" ry="0.56" style="fill:#000000"></ellipse><ellipse cx="267.72" cy="222.87" rx="0.67" ry="0.56" style="opacity:0.4"></ellipse><path d="M268.24,222.76a.48.48,0,0,1-.52.43.44.44,0,1,1,0-.86A.48.48,0,0,1,268.24,222.76Z" style="fill:#000000"></path><path d="M268,222.68c0,.1-.13.19-.29.19s-.28-.09-.28-.19.13-.2.28-.2S268,222.57,268,222.68Z" style="fill:#000000"></path><path d="M268,222.68c0,.1-.13.19-.29.19s-.28-.09-.28-.19.13-.2.28-.2S268,222.57,268,222.68Z" style="fill:#fff;opacity:0.2"></path><path d="M268.6,217.53h-1.72a1,1,0,0,1-1-1h0a1,1,0,0,1,1-1h1.72a1,1,0,0,1,1,1h0A1,1,0,0,1,268.6,217.53Z" style="fill:#000000"></path><path d="M288.76,211.76h-2.87a1.3,1.3,0,0,0-.81.28h-34.4a1.3,1.3,0,0,0-.81-.28H247a1.34,1.34,0,0,0-1.34,1.34h0a1.34,1.34,0,0,0,1.34,1.33h2.11l12.22,1.2,1.16,2a3.37,3.37,0,0,0,2.89,1.65h5a3.37,3.37,0,0,0,2.89-1.65l1.16-2,12.22-1.2h2.11a1.34,1.34,0,0,0,1.34-1.33h0A1.34,1.34,0,0,0,288.76,211.76Z" style="fill:#000000"></path><path d="M288.76,211.76h-2.87a1.3,1.3,0,0,0-.81.28h-34.4a1.3,1.3,0,0,0-.81-.28H247a1.34,1.34,0,0,0-1.34,1.34h0a1.34,1.34,0,0,0,1.34,1.33h2.11l12.22,1.2,1.16,2a3.37,3.37,0,0,0,2.89,1.65h5a3.37,3.37,0,0,0,2.89-1.65l1.16-2,12.22-1.2h2.11a1.34,1.34,0,0,0,1.34-1.33h0A1.34,1.34,0,0,0,288.76,211.76Z" style="fill:#fff;opacity:0.2"></path><ellipse cx="267.79" cy="212.04" rx="7.5" ry="2.53" style="fill:#000000"></ellipse><ellipse cx="267.79" cy="212.04" rx="7.5" ry="2.53" style="fill:#fff;opacity:0.4"></ellipse><path d="M289,207.44c-.16,0-7.79-.86-11.28-1.24a.1.1,0,0,0,0,.2l8.64,1.94Z" style="fill:#000000"></path><path d="M289,207.44c-.16,0-7.79-.86-11.28-1.24a.1.1,0,0,0,0,.2l8.64,1.94Z" style="fill:#fff;opacity:0.6000000000000001"></path><path d="M286.31,207.35a1,1,0,1,0,1-1A1,1,0,0,0,286.31,207.35Z" style="fill:#000000"></path><rect x="286.31" y="207.35" width="1.98" height="0.99" transform="translate(574.59 415.69) rotate(180)" style="fill:#000000"></rect><rect x="286.72" y="208.34" width="1.15" height="0.52" transform="translate(574.59 417.2) rotate(180)" style="fill:#000000"></rect><path d="M294.86,208.25l2.2.72a.44.44,0,0,1,0,.83h0a7.34,7.34,0,0,1-3.42.36l-2.76-.37-.13,0-2.89-1.41-1.15-1,3.09,0A16.39,16.39,0,0,1,294.86,208.25Z" style="fill:#000000"></path><g style="opacity:0.6000000000000001"><path d="M294.86,208.25l2.2.72a.44.44,0,0,1,0,.83h0a7.34,7.34,0,0,1-3.42.36l-2.76-.37-.13,0-2.89-1.41-1.15-1,3.09,0A16.39,16.39,0,0,1,294.86,208.25Z" style="fill:#fff"></path></g><path d="M285.35,212h4v-1.27a2,2,0,0,0-2-2h0a2,2,0,0,0-2,2Z" style="fill:#000000"></path><path d="M285.35,212h4v-1.27a2,2,0,0,0-2-2h0a2,2,0,0,0-2,2Z" style="fill:#fff;opacity:0.2"></path><path d="M291,291.94q-.28-2.74-.55-5.51l.5,0c.17,1.83.36,3.66.55,5.5Z" style="fill:#000000"></path><path d="M289.69,278.16c-.26-3.21-.51-6.46-.72-9.66l.5,0c.21,3.2.46,6.45.72,9.65Z" style="fill:#000000"></path><path d="M288.45,259.53c-.71-14.25-.83-28.21-.34-41.51l.5,0c-.49,13.28-.37,27.23.34,41.46Z" style="fill:#000000"></path><path d="M269.13,282.76c-.72-1.58-1.42-3.17-2.12-4.76l.46-.2c.7,1.59,1.4,3.17,2.12,4.75Z" style="fill:#000000"></path><path d="M263.89,270.62c-7.64-18.62-12.7-35.32-15.47-51.07l.5-.08c2.76,15.71,7.81,32.38,15.43,51Z" style="fill:#000000"></path></g><g id="freepik--aircraft-2--inject-67"><path d="M290,146.27a14.05,14.05,0,0,0-3.75-2.48L282,141.86l-10.58,3.85,25.39,13.15a4.81,4.81,0,0,0,3.86.25l1-.36a.85.85,0,0,0,.29-1.42Z" style="fill:#000000"></path><path d="M290,146.27a14.05,14.05,0,0,0-3.75-2.48L282,141.86l-10.58,3.85,25.39,13.15a4.81,4.81,0,0,0,3.86.25l1-.36a.85.85,0,0,0,.29-1.42Z" style="fill:#fff;opacity:0.30000000000000004"></path><polygon points="290.41 123.79 280.61 81.91 270.48 85.59 268.28 133.47 291.23 126.03 290.41 123.79" style="fill:#000000"></polygon><polygon points="290.41 123.79 280.61 81.91 270.48 85.59 268.28 133.47 291.23 126.03 290.41 123.79" style="fill:#fff;opacity:0.6000000000000001"></polygon><path d="M351.46,140.63l82.28,37.94a6.72,6.72,0,0,0,3.88.54l2.53-.41a1.91,1.91,0,0,0,1.09-3.18,34.1,34.1,0,0,0-2.49-2.37c-4.42-3.82-52.88-45-52.88-45Z" style="fill:#000000"></path><path d="M351.46,140.63l82.28,37.94a6.72,6.72,0,0,0,3.88.54l2.53-.41a1.91,1.91,0,0,0,1.09-3.18,34.1,34.1,0,0,0-2.49-2.37c-4.42-3.82-52.88-45-52.88-45Z" style="fill:#fff;opacity:0.30000000000000004"></path><path d="M253.52,140.39a4.33,4.33,0,0,0,2.45,6.34c11.14,3.42,51.45,12.77,109.51-8.36,65.9-24,81.41-35.6,79.67-44.55a7.28,7.28,0,0,0-.82-2.1C442,87.56,430.65,71.51,401.72,82L269,130.32S257.11,134.42,253.52,140.39Z" style="fill:#000000"></path><path d="M294.29,121.12,401.72,82c28.93-10.52,40.24,5.53,42.61,9.69a7.28,7.28,0,0,1,.82,2.1c1.74,9-13.77,20.58-79.67,44.55-58.06,21.13-98.37,11.78-109.51,8.36a4.33,4.33,0,0,1-2.45-6.34c3.59-6,15.48-10.07,15.48-10.07Z" style="fill:#000000"></path><path d="M395.13,106.36c-47.9,18.3-110.51,37.8-135.3,41.45,14.94,3.82,53,9.72,105.65-9.44,65.63-23.88,81.28-35.51,79.68-44.44C438.91,93.18,425.2,94.87,395.13,106.36Z" style="opacity:0.1"></path><g style="opacity:0.7000000000000001"><rect x="271.55" y="112.81" width="148.12" height="1" transform="translate(-18 121.96) rotate(-19.52)"></rect></g><path d="M321,124.86l23.56-8.57a5.24,5.24,0,0,0,3.38-6c-.54-2.49-2.39-5.5-7.5-7.93L221.59,55.52a6.79,6.79,0,0,0-2.4-.47l-9.37-.13a.71.71,0,0,0-.38,1.31Z" style="fill:#000000"></path><path d="M321,124.86l23.56-8.57a5.24,5.24,0,0,0,3.38-6c-.54-2.49-2.39-5.5-7.5-7.93L221.59,55.52a6.79,6.79,0,0,0-2.4-.47l-9.37-.13a.71.71,0,0,0-.38,1.31Z" style="fill:#fff;opacity:0.30000000000000004"></path><path d="M267.35,185.06l-3.46,0v-.5l3.45,0Z" style="fill:#000000"></path><path d="M276.33,185.08v-.5c3,0,6,0,9-.07v.5C282.32,185,279.32,185.07,276.33,185.08Z" style="fill:#000000"></path><path d="M294.29,184.88v-.5c16.76-.3,33.14-.91,46.94-1.46l0,.5C327.43,184,311.06,184.58,294.29,184.88Z" style="fill:#000000"></path><rect x="350.25" y="182.28" width="13.22" height="0.5" transform="translate(-7.18 14.77) rotate(-2.35)" style="fill:#000000"></rect><path d="M372.5,182.09l0-.5c6.41-.3,13-.62,19.52-1,14.19-.73,25.08-1.35,35.3-2l0,.5c-10.23.65-21.12,1.27-35.32,2C385.48,181.47,378.91,181.79,372.5,182.09Z" style="fill:#000000"></path><rect x="185.87" y="128.17" width="7.46" height="0.5" transform="translate(18.16 280.25) rotate(-75.64)" style="fill:#000000"></rect><rect x="186.15" y="105.86" width="18.51" height="0.5" transform="translate(42.85 267.87) rotate(-75.18)" style="fill:#000000"></rect><path d="M200.47,88.08,200,88c0-.19,5.2-19.29,7.69-28.79l.48.13C205.67,68.79,200.52,87.89,200.47,88.08Z" style="fill:#000000"></path><g style="opacity:0.7000000000000001"><path d="M286.66,131.24h0c-.78.28-1.34-.23-1.26-1.13l.14-1.64a2.67,2.67,0,0,1,1.55-2.14h0c.77-.28,1.33.22,1.25,1.13l-.14,1.63A2.68,2.68,0,0,1,286.66,131.24Z"></path><path d="M292.13,129.24h0c-.77.29-1.33-.22-1.25-1.12l.14-1.64a2.68,2.68,0,0,1,1.54-2.14h0c.78-.29,1.34.22,1.26,1.12l-.14,1.64A2.67,2.67,0,0,1,292.13,129.24Z"></path><path d="M297.61,127.25h0c-.77.28-1.33-.22-1.26-1.13l.15-1.63a2.68,2.68,0,0,1,1.54-2.15h0c.77-.28,1.34.23,1.26,1.13l-.15,1.64A2.68,2.68,0,0,1,297.61,127.25Z"></path><path d="M303.09,125.26h0c-.77.28-1.34-.22-1.26-1.13l.15-1.64a2.68,2.68,0,0,1,1.54-2.14h0c.77-.28,1.33.22,1.25,1.13l-.14,1.63A2.68,2.68,0,0,1,303.09,125.26Z"></path><path d="M308.57,123.27h0c-.78.28-1.34-.23-1.26-1.13l.14-1.64a2.67,2.67,0,0,1,1.55-2.14h0c.77-.28,1.33.22,1.25,1.12l-.14,1.64A2.71,2.71,0,0,1,308.57,123.27Z"></path><path d="M350.35,108.06h0c-.77.28-1.33-.22-1.25-1.13l.14-1.63a2.68,2.68,0,0,1,1.54-2.15h0c.78-.28,1.34.23,1.26,1.13l-.14,1.64A2.67,2.67,0,0,1,350.35,108.06Z"></path><path d="M355.83,106.07h0c-.77.28-1.33-.23-1.25-1.13l.14-1.64a2.68,2.68,0,0,1,1.54-2.14h0c.77-.28,1.34.22,1.26,1.13l-.15,1.63A2.66,2.66,0,0,1,355.83,106.07Z"></path><path d="M361.31,104.08h0c-.77.28-1.34-.23-1.26-1.13l.15-1.64a2.68,2.68,0,0,1,1.54-2.14h0c.77-.29,1.33.22,1.26,1.12l-.15,1.64A2.71,2.71,0,0,1,361.31,104.08Z"></path><path d="M366.79,102.08h0c-.78.28-1.34-.22-1.26-1.13l.14-1.63a2.67,2.67,0,0,1,1.55-2.15h0c.77-.28,1.33.23,1.25,1.13l-.14,1.64A2.68,2.68,0,0,1,366.79,102.08Z"></path><path d="M372.26,100.09h0c-.77.28-1.33-.22-1.25-1.13l.14-1.63a2.68,2.68,0,0,1,1.54-2.15h0c.78-.28,1.34.22,1.26,1.13l-.14,1.63A2.67,2.67,0,0,1,372.26,100.09Z"></path><path d="M378.13,98h0c-.77.28-1.34-.23-1.26-1.13l.15-1.64a2.66,2.66,0,0,1,1.54-2.14h0c.77-.28,1.33.22,1.25,1.12l-.14,1.64A2.71,2.71,0,0,1,378.13,98Z"></path><path d="M383.61,96h0c-.78.28-1.34-.22-1.26-1.12l.14-1.64A2.69,2.69,0,0,1,384,91.05h0c.77-.28,1.33.23,1.25,1.13l-.14,1.64A2.68,2.68,0,0,1,383.61,96Z"></path><path d="M389.08,94h0c-.77.28-1.33-.22-1.25-1.13l.14-1.63a2.68,2.68,0,0,1,1.54-2.15h0c.78-.28,1.34.22,1.26,1.13l-.14,1.63A2.67,2.67,0,0,1,389.08,94Z"></path><path d="M394.56,92h0c-.77.28-1.33-.23-1.26-1.13l.15-1.64A2.68,2.68,0,0,1,395,87.07h0c.77-.28,1.34.22,1.26,1.13l-.15,1.63A2.68,2.68,0,0,1,394.56,92Z"></path><path d="M400,90h0c-.77.29-1.34-.22-1.26-1.12l.15-1.64a2.69,2.69,0,0,1,1.54-2.15h0c.77-.28,1.33.23,1.25,1.13l-.14,1.64A2.68,2.68,0,0,1,400,90Z"></path></g><path d="M422.23,81.05a14.39,14.39,0,0,0-5.07,2.71s2.2-.05,5.34.07Z" style="opacity:0.7000000000000001"></path><g style="opacity:0.7000000000000001"><path d="M429.64,84.35a42.63,42.63,0,0,1,8.88,1.82,22.22,22.22,0,0,0-8.91-5.11Z"></path><path d="M427.8,80.68a13.41,13.41,0,0,0-3.95,0l.31,3.21c1.16.06,2.4.15,3.67.26Z"></path></g><path d="M320,89.42a223.35,223.35,0,0,0-21.12,10.87,11.92,11.92,0,0,0,5.25,14.43,223.55,223.55,0,0,0,23.17-5.25c4.15-1.51,5.89-7.23,3.87-12.76S324.16,87.91,320,89.42Z" style="fill:#000000"></path><path d="M320,89.42a223.35,223.35,0,0,0-21.12,10.87,11.92,11.92,0,0,0,5.25,14.43,223.55,223.55,0,0,0,23.17-5.25c4.15-1.51,5.89-7.23,3.87-12.76S324.16,87.91,320,89.42Z" style="opacity:0.1"></path><path d="M329.65,97.26c1.61,4.42.22,9-3.09,10.18s-7.3-1.4-8.91-5.81-.22-9,3.09-10.18S328,92.85,329.65,97.26Z" style="opacity:0.7000000000000001"></path><path d="M396.87,134.53a202.29,202.29,0,0,0-19.13,9.84,10.8,10.8,0,0,0,4.75,13.07,202.64,202.64,0,0,0,21-4.75c3.76-1.37,5.33-6.54,3.51-11.56S400.63,133.16,396.87,134.53Z" style="fill:#000000"></path><path d="M396.87,134.53a202.29,202.29,0,0,0-19.13,9.84,10.8,10.8,0,0,0,4.75,13.07,202.64,202.64,0,0,0,21-4.75c3.76-1.37,5.33-6.54,3.51-11.56S400.63,133.16,396.87,134.53Z" style="opacity:0.1"></path><path d="M405.61,141.63c1.45,4,.2,8.13-2.8,9.22s-6.62-1.26-8.07-5.26-.2-8.13,2.8-9.22S404.15,137.63,405.61,141.63Z" style="opacity:0.7000000000000001"></path><path d="M268.11,135.61l-38.84-17.48a6.23,6.23,0,0,0-2.44-.54l-5.2-.06a1.12,1.12,0,0,0-.53,2.12l37.5,19.42Z" style="fill:#000000"></path><path d="M268.11,135.61l-38.84-17.48a6.23,6.23,0,0,0-2.44-.54l-5.2-.06a1.12,1.12,0,0,0-.53,2.12l37.5,19.42Z" style="fill:#fff;opacity:0.4"></path></g><g id="freepik--aircraft-1--inject-67"><path d="M184.48,215.42l-6.62-1.49.12-.49,6.61,1.49Z" style="fill:#000000"></path><path d="M170.44,212.25l-11.11-2.71c-16.68-4-33.92-8.24-50-12.53l.13-.48c16.07,4.29,33.31,8.47,50,12.53l11.12,2.7Z" style="fill:#000000"></path><path d="M167.32,203c-8.27-1.94-15.07-3.68-21.42-5.48l.14-.49c6.34,1.8,13.13,3.54,21.4,5.48Z" style="fill:#000000"></path><path d="M139.29,195.79l-.75-.21c-1.94-.54-3.95-1.09-5.87-1.81l.18-.47c1.89.71,3.89,1.26,5.82,1.8l.76.2Z" style="fill:#000000"></path><ellipse cx="113.31" cy="142.18" rx="62.55" ry="28.62" style="fill:#000000"></ellipse><ellipse cx="113.31" cy="142.18" rx="62.55" ry="28.62" style="fill:#fff;opacity:0.8"></ellipse><rect x="112.67" y="141.45" width="1" height="8.3"></rect><rect x="65.42" y="141.05" width="107.12" height="1" transform="translate(-13.89 12.95) rotate(-5.89)"></rect><path d="M119,140.07s2.51,2.69,3.4,2.16,52.75-5.18,52.75-5.18l-5.24-3.43S118.31,139.41,119,140.07Z" style="fill:#000000"></path><path d="M119,140.07s2.51,2.69,3.4,2.16,52.75-5.18,52.75-5.18l-5.24-3.43S118.31,139.41,119,140.07Z" style="fill:#fff;opacity:0.6000000000000001"></path><path d="M51.56,147.6s4.43,2,3.4,2.15c0,0,51.11-5.65,51.83-5.78l-3.38-2.21S50.89,146.93,51.56,147.6Z" style="fill:#000000"></path><path d="M51.56,147.6s4.43,2,3.4,2.15c0,0,51.11-5.65,51.83-5.78l-3.38-2.21S50.89,146.93,51.56,147.6Z" style="fill:#fff;opacity:0.6000000000000001"></path><path d="M151.42,175.27l-12.49,4.16s1.35,2.42,3.78,2.42c1.41,0,9.2-2.5,15.48-4.6Z" style="fill:#000000"></path><path d="M151.42,175.27l-12.49,4.16s1.35,2.42,3.78,2.42c1.41,0,9.2-2.5,15.48-4.6Z" style="fill:#fff;opacity:0.2"></path><polygon points="174.21 180.04 180.94 169.08 184.54 169.08 179.37 180.9 174.21 180.04" style="fill:#000000"></polygon><polygon points="174.21 180.04 180.94 169.08 184.54 169.08 179.37 180.9 174.21 180.04" style="fill:#fff;opacity:0.1"></polygon><polygon points="133.46 168.16 182.01 181.43 182.91 184.51 133.46 175.84 133.46 168.16" style="fill:#000000"></polygon><polygon points="133.46 173.03 133.46 175.84 182.91 184.51 182.67 183.68 133.46 173.03" style="opacity:0.1"></polygon><path d="M156.79,177l10.72-3.57s-.34-2.42-4.17-2.42h-1.08l-12.24,4Z" style="fill:#000000"></path><g style="opacity:0.2"><path d="M156.79,177l10.72-3.57s-.34-2.42-4.17-2.42h-1.08l-12.24,4Z" style="fill:#fff"></path></g><polygon points="174.21 182.97 179.81 194.63 183.51 194.63 179.37 183.56 174.21 182.97" style="fill:#000000"></polygon><path d="M135.08,168.6a23.26,23.26,0,0,0-9-13.88,38.11,38.11,0,0,0-19.58-7.17,47.23,47.23,0,0,0-8.41.14c7.46,1.59,16.75,5.09,27.21,12.34C134.27,166.21,135.07,168.55,135.08,168.6Z" style="fill:#000000"></path><path d="M68.53,160.71c-.8,3.2,2,6.09,4.68,8a90.3,90.3,0,0,0,38.61,15.87A36,36,0,0,0,124,185a17,17,0,0,0,8.57-4.09c-27.34-17.73-49.91-23.81-60-24.56C70.8,157.39,69,158.72,68.53,160.71Z" style="fill:#000000"></path><path d="M134.33,178.92a8.2,8.2,0,0,0,1.08-3.6,21.56,21.56,0,0,0-.33-6.72s-.81-2.39-9.73-8.57c-10.46-7.25-19.75-10.75-27.21-12.34-8.65.91-17.11,4.07-24.81,8.24l-.72.41c10.07.75,32.64,6.83,60,24.56A12.66,12.66,0,0,0,134.33,178.92Z" style="fill:#000000"></path><path d="M135.08,168.6a23.26,23.26,0,0,0-9-13.88,38.11,38.11,0,0,0-19.58-7.17,47.23,47.23,0,0,0-8.41.14c7.46,1.59,16,3.07,26.5,10.32C133.56,164.19,135.07,168.55,135.08,168.6Z" style="fill:#fff;opacity:0.2"></path><path d="M68.53,160.71c-.8,3.2,2,6.09,4.68,8a90.3,90.3,0,0,0,38.61,15.87A36,36,0,0,0,124,185a17,17,0,0,0,8.57-4.09c-6.25-11.82-56.6-27.4-60-24.56C70.8,157.39,69,158.72,68.53,160.71Z" style="opacity:0.1"></path><path d="M79.83,186.25l-.94-.34a22.45,22.45,0,0,1,8.84-10.67l.51.86A21.83,21.83,0,0,0,79.83,186.25Z" style="fill:#263238"></path><path d="M95.9,192.33l-1-.18c.67-3.65,5.73-11.23,6-11.55l.83.55C101.63,181.23,96.52,188.88,95.9,192.33Z" style="fill:#263238"></path><path d="M102.23,195.38a.69.69,0,0,1-.25,0L72.36,184.87a.74.74,0,0,1-.31-.21l-2.88-3.27a.75.75,0,1,1,1.12-1L73,183.52l29.44,10.41a.75.75,0,0,1-.25,1.45Z" style="fill:#263238"></path><path d="M102.69,182.62l-.94-.35c2.38-6.45,2-8.39,2-8.41l1-.27C104.74,173.8,105.19,175.84,102.69,182.62Z" style="fill:#263238"></path><path d="M119.3,188.89l-1-.18c.63-3.43-1.29-9.56-1.3-9.62l.95-.3C118,179.05,120,185.22,119.3,188.89Z" style="fill:#263238"></path><path d="M126.18,192.17a.77.77,0,0,1-.25,0L95.15,181.25a.84.84,0,0,1-.31-.22L92,177.77a.75.75,0,1,1,1.13-1l2.75,3.12,30.59,10.81a.75.75,0,0,1-.25,1.46Z" style="fill:#263238"></path><path d="M111.45,153.75h0a26.64,26.64,0,0,1,.1,10l-.1.55a32.4,32.4,0,0,0-5.87-2.11c1.59-5,.85-7.83.75-10.55C109.3,152.75,111.45,153.75,111.45,153.75Z" style="opacity:0.7000000000000001"></path><path d="M98.07,149.1l-2.39,5.54a57.54,57.54,0,0,0-15.53-2.14,85.08,85.08,0,0,1,11.69-3.76A15.38,15.38,0,0,1,98.07,149.1Z" style="opacity:0.7000000000000001"></path><path d="M105.33,151.26c-.07,2.06-.19,4.67-.34,6.29-2.36-.86-5.23-1.81-8.34-2.65.85-1.8,1.93-4.39,2.42-5.58A62.78,62.78,0,0,1,105.33,151.26Z" style="opacity:0.7000000000000001"></path></g><g id="freepik--Character--inject-67"><path d="M218.75,217.26c.31-.11.69.16.87.64s.09.93-.24,1.06-.68-.18-.85-.65S218.45,217.37,218.75,217.26Z" style="fill:#263238"></path><path d="M220.67,223.47a2.85,2.85,0,0,0,2.06-1.24,17.84,17.84,0,0,1-3.68-3.15Z" style="fill:#ff5652"></path><path d="M215.69,216.32h0a.29.29,0,0,1-.08-.4,2.86,2.86,0,0,1,2.3-1.32H218a.29.29,0,0,1,.24.33.29.29,0,0,1-.32.25,2.34,2.34,0,0,0-1.81,1.07.31.31,0,0,1-.15.1A.31.31,0,0,1,215.69,216.32Z" style="fill:#263238"></path><path d="M217.12,231.46c0,3.6.87,7.22,6,7.1,0,0,5.79,3.18-3.08,5.52-8.07,2.13-10.42-2-10.42-2,2.28-3.7-.86-10-2.86-14.07Z" style="fill:#ff8a7b"></path><path d="M221.54,225.26a8.51,8.51,0,0,1-2.13,6.73,8,8,0,0,1-2.14,1.71h0a7.55,7.55,0,0,1-7,.15c-4-1.86-5.12-5.26-7.56-10.83a8.29,8.29,0,0,1,7.88-11.74C217,211.51,220.88,219.69,221.54,225.26Z" style="fill:#ff8a7b"></path><path d="M219.41,232a8,8,0,0,1-2.14,1.71c-.16-.87-.49-3-.64-3.28a6.82,6.82,0,0,0,2.15,1.38C219,231.88,219.2,231.92,219.41,232Z" style="opacity:0.30000000000000004;isolation:isolate"></path><path d="M199.87,214.79a14.74,14.74,0,0,0-.47,10.45c.94,3.2,8.43,14.25,17.07,4.5A18,18,0,0,1,214,219.37c3.77,3.29.28-3.7.37-4.92.15-1.93,2.64,4.9,3,3,1-5-3.46-8.37-5-9.05C210.44,207.52,203.56,207,199.87,214.79Z" style="fill:#263238"></path><path d="M212.5,218.41c1.82,0,3.42,2.24,3.94,3.78.59,1.71-.26,3.16-2.11,2.43a6.9,6.9,0,0,1-3.35-2.89C210.08,220.15,210.67,218.41,212.5,218.41Z" style="fill:#ff8a7b"></path><path d="M221.59,225.59a1.92,1.92,0,0,1-1.21-.81l0-.05a.18.18,0,0,1,.1-.24.18.18,0,0,1,.25.1,1.54,1.54,0,0,0,.85.61Z" style="fill:#263238"></path><path d="M197.15,226.37a7.48,7.48,0,0,0,3.2,3.44,6.53,6.53,0,0,0,5.77-.34,13.81,13.81,0,0,0,4.4-4,32.63,32.63,0,0,0,4-6.86,10.65,10.65,0,0,0,1.06-4,7.31,7.31,0,0,0-4-6.45,9.32,9.32,0,0,0-7.75-.17A13.12,13.12,0,0,0,197.15,226.37Z" style="fill:#000000"></path><path d="M198.77,236.92c.19.65.63,2.48,1.93,2.61,0,0-.73-4.31,7.52-4.12,2.41-4.57,2.74-7.21,3.93-12.24a10.91,10.91,0,0,0-12.49,4.06,6.45,6.45,0,0,0-1.16,3.21A20.34,20.34,0,0,0,198.77,236.92Z" style="fill:#000000"></path><g style="opacity:0.5"><path d="M198.77,236.92c.19.65.63,2.48,1.93,2.61,0,0-.73-4.31,7.52-4.12,2.41-4.57,2.74-7.21,3.93-12.24a10.91,10.91,0,0,0-12.49,4.06,6.45,6.45,0,0,0-1.16,3.21A20.34,20.34,0,0,0,198.77,236.92Z"></path></g><g id="freepik--character-2--inject-170--inject-67"><path d="M240.22,254.2l.4,1.13c3.36.65,6-2.13,6-2.13l-3.82-4.6-1.94,2.14A3.44,3.44,0,0,0,240.22,254.2Z" style="fill:#ff8a7b"></path><polygon points="242.86 248.6 246.67 253.2 249.24 251.4 247.51 246.5 242.86 248.6" style="fill:#ff8a7b"></polygon><path d="M242,254.12a3.31,3.31,0,0,0-1.81-1.67c-1.51,2.76-13.42,13.4-14.24,14.67h0S214.08,240,205.8,240.31c-13.08,1.72,13.26,30.64,14.34,31.8l0,0c8.51,11,13.57-1.34,14-1.68A136.14,136.14,0,0,0,242,257.15,3.4,3.4,0,0,0,242,254.12Zm0,0a3.31,3.31,0,0,0-1.81-1.67c-1.51,2.76-13.42,13.4-14.24,14.67h0S214.08,240,205.8,240.31c-13.08,1.72,13.26,30.64,14.34,31.8l0,0c8.51,11,13.57-1.34,14-1.68A136.14,136.14,0,0,0,242,257.15,3.4,3.4,0,0,0,242,254.12Zm0,0a3.31,3.31,0,0,0-1.81-1.67c-1.51,2.76-13.42,13.4-14.24,14.67h0S214.08,240,205.8,240.31c-13.08,1.72,13.26,30.64,14.34,31.8l0,0c8.51,11,13.57-1.34,14-1.68A136.14,136.14,0,0,0,242,257.15,3.4,3.4,0,0,0,242,254.12Z" style="fill:#000000"></path><path d="M242,254.12a3.31,3.31,0,0,0-1.81-1.67c-1.51,2.76-13.42,13.4-14.24,14.67h0S214.08,240,205.8,240.31c-13.08,1.72,13.26,30.64,14.34,31.8l0,0c8.51,11,13.57-1.34,14-1.68A136.14,136.14,0,0,0,242,257.15,3.4,3.4,0,0,0,242,254.12Zm0,0a3.31,3.31,0,0,0-1.81-1.67c-1.51,2.76-13.42,13.4-14.24,14.67h0S214.08,240,205.8,240.31c-13.08,1.72,13.26,30.64,14.34,31.8l0,0c8.51,11,13.57-1.34,14-1.68A136.14,136.14,0,0,0,242,257.15,3.4,3.4,0,0,0,242,254.12Zm0,0a3.31,3.31,0,0,0-1.81-1.67c-1.51,2.76-13.42,13.4-14.24,14.67h0S214.08,240,205.8,240.31c-13.08,1.72,13.26,30.64,14.34,31.8l0,0c8.51,11,13.57-1.34,14-1.68A136.14,136.14,0,0,0,242,257.15,3.4,3.4,0,0,0,242,254.12Z" style="opacity:0.2"></path><path d="M223,241.33s.16-4-2.57-5.05-9.95.4-11.44.85-.79,1.87-.27,3.18Z" style="fill:#000000"></path><path d="M223,241.33s.16-4-2.57-5.05-9.95.4-11.44.85-.79,1.87-.27,3.18Z" style="fill:#fff;opacity:0.5"></path><path d="M210.67,254.52a81.24,81.24,0,0,1-4.27,7l-.48-.32,4.66-13Z" style="opacity:0.30000000000000004;isolation:isolate"></path><path d="M213.11,414.94a.12.12,0,0,1,0-.13.16.16,0,0,1,.11-.1c.06,0,1.88-.24,2.51.29a.58.58,0,0,1,.22.45c0,.34-.14.5-.27.55a1.68,1.68,0,0,1-1.33-.28A6.33,6.33,0,0,1,213.11,414.94Zm.41,0c.67.5,1.66,1,2,.83,0,0,.13-.07.12-.31a.33.33,0,0,0-.13-.26.67.67,0,0,0-.14-.09A4.33,4.33,0,0,0,213.52,414.94Z" style="fill:#000000"></path><path d="M213.07,414.88a.17.17,0,0,1,0-.14c0-.06.87-1.4,1.67-1.57a.69.69,0,0,1,.57.11.42.42,0,0,1,.21.48c-.18.59-1.69,1.16-2.33,1.18l-.05,0A.18.18,0,0,1,213.07,414.88Zm1.73-1.44a3,3,0,0,0-1.34,1.24c.69-.12,1.72-.61,1.82-1,0,0,0-.1-.11-.19l0,0A.45.45,0,0,0,214.8,413.44Z" style="fill:#000000"></path><polygon points="210.02 403.46 215.38 403.75 212.53 416.42 207.17 416.13 210.02 403.46" style="fill:#ff8a7b"></polygon><path d="M213.75,414.84c.65,1.64,3.06,4.49,6.38,7.23.74.61-.55,2.52-2.59,1.44s-6.58-3.76-8-4.51c-2.4-1.23-3.41-1.61-5.29-2.54a.83.83,0,0,1-.16-.09.81.81,0,0,1-.11-1.13l3.16-3.82a.48.48,0,0,1,.59-.11l5.45,2.79A1.34,1.34,0,0,1,213.75,414.84Z" style="fill:#263238"></path><polygon points="208.55 409.99 213.8 410.77 215.38 403.75 210.02 403.46 208.55 409.99" style="opacity:0.2;isolation:isolate"></polygon><path d="M226,285.51s1.13,40.66.84,56.62c-.32,17.48-9.41,63.34-9.41,63.34l-9.9-1.16s4.79-40.48,3.58-57.5c-1.34-18.42-10.72-49.18-4.43-59l0,0v0l7.66-.91Z" style="fill:#000000"></path><path d="M226,285.51s.55,19.57.78,36.89c.11,7.64.15,14.85.06,19.73-.32,17.48-9.62,63.58-9.62,63.58l-9.91-1.16s5-40.72,3.8-57.74c-1.34-18.42-10.45-47.81-4.43-59l0,0v0l7.66-.91Z" style="opacity:0.5"></path><path d="M207.36,402.09l-.62,3.37,11.14,1.37,1.49-3.67Z" style="fill:#263238"></path><path d="M225.75,299.33c.55,13.38,1.24,32.25,1.08,42.17-3.51-13.29-9.43-39.29-2.69-42.05A2.47,2.47,0,0,1,225.75,299.33Z" style="opacity:0.30000000000000004;isolation:isolate"></path><path d="M267.2,416.81a.19.19,0,0,1-.11-.12.14.14,0,0,1,.06-.14c.08-.06,2-1.25,2.88-1a.68.68,0,0,1,.42.34.56.56,0,0,1,0,.61c-.23.35-.9.45-1.6.45A9.32,9.32,0,0,1,267.2,416.81Zm2.52-1a5.42,5.42,0,0,0-2.15.75c1,.15,2.4.14,2.65-.24.06-.05.09-.14,0-.32a.38.38,0,0,0-.26-.19Z" style="fill:#000000"></path><path d="M267.11,416.79a.13.13,0,0,1-.05-.13,4.14,4.14,0,0,1,.82-2.3.92.92,0,0,1,.74-.25c.35,0,.48.24.48.4.11.67-1.18,2-1.83,2.29h-.06A.18.18,0,0,1,267.11,416.79Zm1.4-2.41a.67.67,0,0,0-.4.16,3.46,3.46,0,0,0-.72,1.84c.65-.44,1.52-1.46,1.46-1.86,0,0,0-.16-.25-.16h-.09Z" style="fill:#000000"></path><polygon points="257.21 404.9 262.31 403 266.81 416.91 261.09 416.91 257.21 404.9" style="fill:#ff8a7b"></polygon><path d="M268,416.44c3.71,2.48,5.84,2.59,10.12,3.59.93.23.33,2.71-1.9,2.71-3.7,0-5.07-.17-8.23-.17-2.7,0-5.8.19-7.94.19l-.18,0a.88.88,0,0,1-.62-1l1-5.31a.49.49,0,0,1,.46-.41h5.94A2.35,2.35,0,0,1,268,416.44Z" style="fill:#263238"></path><polygon points="257.2 404.9 259.39 411.65 264.49 409.75 262.31 403 257.2 404.9" style="opacity:0.2;isolation:isolate"></polygon><path d="M235.26,284.41s12.76,37.53,16.43,53.75c3.8,16.86,14.05,68,14.05,68l-8.65,3.21s-16.43-49.4-21.15-65.7c-1.61-5.55-4.35-13-7.36-20.68C221.94,306.09,214,288.31,214,288.31l12-2.8Z" style="fill:#000000"></path><path d="M235.26,284.41s12.76,37.53,16.43,53.75c3.8,16.86,14.05,68,14.05,68l-8.65,3.21s-16.43-49.4-21.15-65.7c-1.61-5.55-4.35-13-7.36-20.68C221.94,306.09,214,288.31,214,288.31l12-2.8Z" style="opacity:0.5"></path><path d="M255,407.82l1.48,3.1L267,407s-.8-3.79-.84-3.77Z" style="fill:#263238"></path><path d="M235.26,284.41l-7.32,3.32a24.23,24.23,0,0,1-7.12,2l-1.13.13a24.12,24.12,0,0,1-13-2h0v0c-.93-3.77-2-16.17-6.66-34.2-2.68-10.39,3.65-14.16,8.77-14.67l.13-.05a107.65,107.65,0,0,1,12.31-.51,50.66,50.66,0,0,1,7,.87,3,3,0,0,1,2.26,1.74C232.07,244.51,230.86,264.77,235.26,284.41Z" style="fill:#000000"></path><path d="M226.12,248.14c.3,5.23,2.64,12.38,6.15,15.26-.22-2.39-.71-14.29-.83-16.39Z" style="opacity:0.30000000000000004;isolation:isolate"></path><polygon points="258.62 249.84 257.91 244.02 245.59 246.62 246.29 252.44 258.62 249.84" style="fill:#000000"></polygon><path d="M245.74,253.59l13.79-2.91a.67.67,0,0,0,.52-.73l0-.34a.66.66,0,0,1-.52.72l-13.79,2.91a.67.67,0,0,1-.8-.57l0,.34A.67.67,0,0,0,245.74,253.59Z" style="fill:#000000"></path><path d="M245.74,253.59l13.79-2.91a.67.67,0,0,0,.52-.73l0-.34a.66.66,0,0,1-.52.72l-13.79,2.91a.67.67,0,0,1-.8-.57l0,.34A.67.67,0,0,0,245.74,253.59Z" style="opacity:0.30000000000000004"></path><path d="M245.7,253.24l13.79-2.91a.66.66,0,0,0,.52-.72l-.7-5.82a.67.67,0,0,0-.8-.56l-13.79,2.9a.67.67,0,0,0-.52.73l.7,5.81A.67.67,0,0,0,245.7,253.24Zm.59-.8-.7-5.82,12.32-2.6.71,5.82Z" style="fill:#000000"></path><polygon points="246.29 252.44 258.62 249.84 257.91 244.02 245.59 246.62 246.29 252.44" style="fill:#000000"></polygon><polygon points="246.29 252.44 258.62 249.84 257.91 244.02 245.59 246.62 246.29 252.44" style="fill:#fff;opacity:0.7000000000000001"></polygon><path d="M254.17,252.08l.4,1.13c3.36.65,6.05-2.13,6.05-2.13l-3.82-4.6-1.94,2.14A3.44,3.44,0,0,0,254.17,252.08Z" style="fill:#ff8a7b"></path><polygon points="256.81 246.48 260.62 251.08 261.4 248.93 259.5 244.76 256.81 246.48" style="fill:#ff8a7b"></polygon><path d="M255.72,251.53a3.38,3.38,0,0,0-1.81-1.67c-1.51,2.76-6.67,14.58-7.35,13.23-.91-1.82-11.95-27.14-18.44-23.35C215,241.46,245.46,274.88,245.65,275a3.66,3.66,0,0,0,3.1.08,4.33,4.33,0,0,0,1.29-.81,8.16,8.16,0,0,0,1.23-1.39,11.22,11.22,0,0,0,.79-1.2c.35-.59.95-.87,3.67-17.09A4.85,4.85,0,0,0,255.72,251.53Z" style="fill:#000000"></path></g></g></svg>